<svg width="200" height="200" viewBox="0 0 24 24" xmlns="http://www.w3.org/2000/svg">
  <style>
    rect { shape-rendering: crispEdges; }
  </style>

  <rect x="8" y="2" width="8" height="2" fill="#333333" />
  <rect x="6" y="4" width="2" height="2" fill="#333333" />
  <rect x="16" y="4" width="2" height="2" fill="#333333" />
  <rect x="4" y="6" width="2" height="5" fill="#333333" />
  <rect x="18" y="6" width="2" height="5" fill="#333333" />

  <rect x="2" y="10" width="5" height="8" fill="#4A90E2" />
  <rect x="17" y="10" width="5" height="8" fill="#4A90E2" />

  <rect x="7" y="10" width="1" height="8" fill="#CCCCCC" />
  <rect x="16" y="10" width="1" height="8" fill="#CCCCCC" />
  
  <rect x="3" y="11" width="1" height="2" fill="#FFFFFF" fill-opacity="0.6" />
  <rect x="18" y="11" width="1" height="2" fill="#FFFFFF" fill-opacity="0.6" />
  <rect x="8" y="2" width="6" height="1" fill="#555555" />

  <rect x="7" y="18" width="1" height="1" fill="#222" />
  <rect x="8" y="19" width="1" height="1" fill="#222" />
  <rect x="9" y="20" width="2" height="1" fill="#222" />
</svg>